<?xml version="1.0" encoding="UTF-8"?>
<svg id="Layer_1" data-name="Layer 1" xmlns="http://www.w3.org/2000/svg" viewBox="0 0 504 504">
  <defs>
    <style>
      .cls-1 {
        fill: #219cd6;
      }
    </style>
  </defs>
  <path class="cls-1" d="m421.67,360.64c-12.97-3.93-19.2-14.05-16.82-27.39,3.01-16.89,20.94-29.94,37.09-27.01,9.97,1.81,16.85,8.64,18.4,18.68.38,2.43,1.15,3.39,3.58,3.11,1.42-.16,2.88,0,4.33-.04,4.61-.12,7.94-2.53,8.82-6.99,1.71-8.73,3.26-17.49,4.62-26.28.58-3.78-.62-7.47-3.91-9.53-11.55-7.22-17.52-18.06-20.94-30.76-.72-2.66-1.86-5.21-2.84-7.79-2.43-6.45-7.26-9.92-13.98-10.12-10.09-.3-20.2,0-30.3-.18-2.77-.05-2.79,1.68-3.09,3.41-4.18,23.68-8.34,47.36-12.51,71.04-.98,5.55-1.94,11.1-2.95,16.87,1.05.14,1.85.35,2.64.34,2.67-.05,4.98.57,5.23,3.66.25,3.08-1.59,5.29-4.45,5.68-3.54.47-7.23.45-10.79.04-3.02-.34-3.49-2.78-3-5.5,2.08-11.6,4.09-23.2,6.14-34.81,3.76-21.31,7.52-42.62,11.32-63.92.87-4.87,2.57-6.24,7.59-6.26,11.43-.04,22.85-.11,34.28,0,12.26.11,19.86,5.69,23.89,17.14,2.15,6.12,4.16,12.32,6.75,18.26,1.29,2.97,3.43,5.73,5.71,8.07,2.84,2.91,6.58,4.97,9.27,7.99,1.76,1.97,3.02,4.38,4.32,6.76.47,3.08,1.13,7.45,1.59,10.53-1.54,7.86-2.75,15.8-4.67,23.57-.95,3.84-2.5,7.83-4.83,10.97-4.59,6.19-11.38,8.04-18.88,7.35-2.71-.25-4.18.53-5.35,3.29-3.4,8.03-9.36,13.82-17.27,17.51-1.61.75-3.28,1.37-4.95,1.98-1.77.65-3.65.99-5.53.99-2.41,0-8.05-.5-8.5-.64Zm14.15-45.21c-10.68-.09-20.76,9.17-21.63,19.87-.72,8.85,5.11,15.7,13.97,16.41,11.45.93,23.17-10.2,22.83-21.67-.26-8.47-6.56-14.54-15.16-14.62Z"/>
  <path d="m419.33,108.66c3.46.88,6.97,1.62,10.38,2.67,26.81,8.29,42.92,33.36,39.78,61.55-1.76,15.87-7.85,29.84-17.56,42.4-1.61,2.08-3.17,2.83-5.75,2.42-2.21-.35-4.53-.07-7.93-.07,1.73-2.02,2.83-3.29,3.93-4.57,10.7-12.41,17.29-26.58,17.74-43.14.85-31.08-22.89-53.71-53.97-51.67-32.92,2.16-62.38,28.61-67.8,61.04-.77,4.59-.83,9.3-1.24,14.28h-9.16c-.67-8.6.5-16.91,3.37-24.83,11.83-32.63,34.76-52.51,68.9-59.31.92-.18,1.8-.52,2.71-.78,5.53,0,11.07,0,16.6,0Z"/>
  <path class="cls-1" d="m223.97,361.28c-2.11,0-4.21-.36-6.18-1.09-.44-.16-.87-.33-1.3-.51-7.85-3.27-12.5-9.09-13.85-17.52-.11-.71-.2-1.43-.31-2.14-.1-.7-.22-1.39-.38-2.48-5.33,0-10.6.02-15.87,0-10.43-.04-16.17-6.86-14.48-17.19.49-2.97.82-5.98,1.65-8.86.43-1.49,1.5-3.18,2.78-3.92,1.25-.72,3.59-1,4.62-.28,1.15.81,1.91,2.97,1.87,4.52-.08,2.85-.96,5.68-1.34,8.53-.67,5.06,1.49,7.57,6.53,7.63,4.57.06,9.15-.11,13.71.06,2.16.08,3.1-.79,4.03-2.64,4.87-9.64,12.48-16.13,23.04-18.69,9.42-2.29,18.11-.68,24.68,6.92,6.56,7.59,6.91,16.48,3.48,25.47-4.08,10.65-11.92,17.54-22.75,21.04h-.03c-2.3.76-4.71,1.14-7.13,1.14h-2.76Zm-11.89-24.8c-.09,7.75,4.71,13.58,12.34,14.98,11.32,2.09,23.95-8.26,24.48-20.06.4-8.9-5.6-15.49-14.5-15.94-11.26-.57-22.18,9.72-22.32,21.02Z"/>
  <path d="m94.54,292.71c1.63-2.91,4.12-4.11,7.44-4.08,10.08.08,20.16.03,30.24.07,2.9.01,5.38.74,5.33,4.35-.04,2.83-2.62,5.26-5.82,5.28-11.04.07-22.08.09-33.11-.07-1.37-.02-2.72-1.26-4.08-1.94,0-1.2,0-2.41,0-3.61Z"/>
  <path class="cls-1" d="m290.97,203.3c28.51,0,57.02,0,85.53,0,11.61,0,17.34,6.65,15.33,18.1-6.4,36.6-12.89,73.18-19.37,109.77-.88,4.95-2.54,6.35-7.51,6.36-31.4.01-62.79,0-94.19.02-2.6,0-4.91-.32-5.3-3.52-.33-2.74,1.76-5.4,4.71-5.88,1.41-.23,2.88-.15,4.32-.15,28.27,0,56.54-.08,84.8.08,3.41.02,4.43-1.12,4.97-4.26,5.93-34.24,12-68.45,18.01-102.68.97-5.53-1.29-8.2-6.98-8.2-57.26-.01-114.52,0-171.78-.05-2.51,0-3.81.63-4.04,3.26-.16,1.91-.57,3.81-1.09,5.66-.81,2.84-3.81,4.76-6.33,4.11-3.31-.86-3.3-3.36-2.84-6.03.28-1.66.55-3.32.9-4.97,1.58-7.59,6.44-11.6,14.22-11.6,28.87-.02,57.74,0,86.61,0Z"/>
  <path d="m422.17,183.41c-1.44,0-2.89.06-4.33-.01-4.7-.24-9.06-.31-12.5,4.18-1.45,1.89-4.74,2.89-7.34,3.28-8.22,1.2-13.85-5.76-11.4-13.71,1.19-3.85,3.67-6.61,6.95-8.9,1.28-.89,2.46-2.6,2.75-4.11,1.93-9.91,3.59-19.86,5.37-29.8.21-1.17.38-2.44.95-3.44,1.35-2.37,3.39-3.88,6.26-3.01,2.81.85,2.96,3.16,2.53,5.59-1.78,10.18-3.53,20.37-5.41,30.53-.36,1.96-.8,5.69.4,7.35.56.78,1.13,1.69,3.39,2.13,2.55.5,6.89.47,8.83.4,5.04-.19,10.1,0,15.15-.03,2.79-.02,5.12.59,5.39,3.91.22,2.65-2.13,5.37-5.1,5.54-3.95.22-7.93.05-11.89.05,0,.02,0,.04,0,.06Zm-22.07.64c5.53-2.67,2.27-11.09-4.21-8.75-5.71,2.06-3.38,12.42,4.21,8.75Z"/>
  <path class="cls-1" d="m438.09,286.98c-3.73,0-7.46.11-11.18-.02-7.48-.26-12.06-5.97-10.82-13.4.81-4.86,1.64-9.71,2.56-14.55,1.28-6.72,7.06-12.28,13.65-13.16,2.49-.33,4.95-.33,5.85,2.73.76,2.58-1.06,6.02-3.95,6.31-4.84.48-6.08,3.43-6.58,7.5-.42,3.33-1.2,6.62-1.72,9.94-.6,3.86.44,5.1,4.36,5.13,6.73.05,13.46.06,20.19,0,2.96-.03,5.39.55,5.57,4.08.13,2.74-2.53,5.33-5.67,5.44-4.08.14-8.17.03-12.26.03Z"/>
  <path d="m174.24,298.31c-8.04,0-16.07-.04-24.11.02-2.84.02-5.45-.12-5.84-3.72-.32-2.96,2.07-5.66,5.58-5.77,9.83-.3,19.67-.42,29.51-.47,6.96-.03,13.92.13,20.87.3,4.12.1,5.83,1.49,5.71,4.34-.13,2.96-2.74,5.34-6.17,5.32-6-.04-11.99-.25-17.99-.36-2.52-.05-5.04,0-7.56,0,0,.11,0,.23,0,.34Z"/>
  <path d="m159.21,271.15c-5.88,0-11.76,0-17.65,0-2.64,0-4.95-.64-5.08-3.79-.13-3.08,1.71-4.86,4.57-5.62.68-.18,1.43-.13,2.15-.13,11.77,0,23.53.04,35.3-.02,2.67-.01,4.87.46,5.3,3.55.38,2.73-2.04,5.68-5.15,5.86-5.75.34-11.52.38-17.28.53-.72.02-1.44,0-2.16,0,0-.13,0-.26,0-.39Z"/>
  <path d="m181.88,234.72c5.17,0,10.34.03,15.51-.01,2.72-.02,5.2.26,5.49,3.71.24,2.84-2.11,5.43-5.29,5.78-1.55.17-3.12.1-4.69.08-9.14-.11-18.28-.22-27.42-.35-4.13-.06-5.95-1.36-5.92-4.14.04-2.94,2.61-5.35,6.08-5.41,5.41-.09,10.82-.02,16.23-.02,0,.12,0,.25,0,.37Z"/>
  <path d="m205.18,271.14c-3.36,0-6.73-.02-10.09,0-2.82.03-5.08-.68-5.24-4.03-.13-2.71,2.19-5.32,5.18-5.45,3.59-.16,7.2.08,10.81.12,3.6.05,7.21.06,10.81.1,2.83.03,5.45.44,5.61,4.07.13,2.84-2.25,5.33-5.55,5.49-3.83.19-7.68.05-11.53.05,0-.12,0-.24,0-.35Z"/>
  <path d="m137.5,243.83c-2.89,0-5.77-.05-8.66.02-2.4.05-4.85-.53-4.73-3.16.09-1.92,1.62-3.94,2.94-5.57.58-.71,2.23-.73,3.4-.75,5.65-.07,11.3,0,16.95-.05,2.7-.02,4.84.64,5.15,3.75.27,2.68-2.06,5.47-4.96,5.65-3.35.21-6.73.05-10.1.05,0,.02,0,.04,0,.06Z"/>
  <path d="m221.14,244.14c-2.16,0-4.32-.03-6.47,0-2.51.05-4.72-.53-5.08-3.39-.36-2.87,1.23-5.44,3.86-5.68,6.3-.58,12.67-.6,19-.38.98.03,2.57,2.51,2.65,3.93.16,2.85-1.85,4.75-4.63,5.04-3.08.32-6.22.07-9.33.07v.4Z"/>
  <path d="m239.87,261.6c1.32,0,2.05.03,2.76,0,2.69-.14,4.97.56,5.17,3.64.19,3.04-1.61,5.17-4.49,5.64-2.93.48-6.03.61-8.95.16-1.29-.2-3.04-2.07-3.28-3.41-.5-2.82,1.38-4.8,4.04-5.57,1.69-.49,3.56-.36,4.75-.46Z"/>
</svg>