<?xml version="1.0" encoding="UTF-8"?>
<svg id="Layer_1" data-name="Layer 1" xmlns="http://www.w3.org/2000/svg" viewBox="0 0 200 200">
  <defs>
    <style>
      .cls-1 {
        fill: #06c;
      }
    </style>
  </defs>
  <path class="cls-1" d="m118.13,103.19l-1.32-.69s-.99.79-1.18.86c-1.89.52-4.16,1.01-4.98-2.55-.38-1.34,1.49-2.42,1.09-3-1.66-2.36-1.4-2.7,1.73-5.83,2.09-1.99,4.11-4.05,6.09-6.16,1.84-1.96,3.73-3.76,6.44-4.5.67-.18,1.31-1.61,1.87-2.04,1.2-.93,2.22-1.77,3.95-2.13,1.87-.38,11.95-11.79,15.63-15.65.67-.71,1.41-.52,2.1.11.81.75.47,1.39-.14,2.02-2.61,2.7-5.24,5.38-7.82,8.1-.47.5-1.57.97-.74,1.9.94,1.05,1.52-.03,2.08-.58,2.54-2.46,5.03-4.98,7.57-7.44.61-.59,1.17-1.76,2.25-.62.91.96.5,1.83-.4,2.73-2.66,2.64-12.35,11.69-14.52,13.58-.66.58-1.06,1.14-1.15,2.22-.06.8-.39,1.32-.73,1.79s-.53.85-.96,1.2c-.57.44-1.09.79-1.4,1.43-2.13,4.51-7.23,9.66-12.04,14.23-.79.67-2.27,1.29-2.88,1.17-.18-.04-.36-.1-.52-.18Zm8.63-19.39c-1.43.15-2.35.59-3.15,1.42-3.11,3.2-6.23,6.39-9.44,9.48-1.15,1.11-1.33,1.68-.64,2.09,1.23.75.93,1.77-.23,2.75-.41.38-.69.77-.39,1.34.22.42,1.2,1.1,1.55.72,1.01-1.1,1.37-1.97,2.51-1.61.34.11,1.43,1.04,1.79,1.25.19.11.72-.11.94-.33,3.34-3.28,6.78-6.47,9.67-10.14.72-.91,1.87-2.37,1.08-3.64-.92-1.48-2.39-2.59-3.68-3.32Zm5.53-2.88c-.46-.32-1.08-.31-1.54,0-.51.34-.82,1.04-.56,1.57.45.93.91,1.87,2.24,1.82.79-.03,1.5-.82,1.26-1.7-.21-.76-.76-1.26-1.39-1.7Zm2.71-1.09c.68.06,3.74-2.83,3.64-3.46-.11-.69-.59-.83-1.06-.39-.99.92-2.11,1.68-3.03,2.68-.37.4-.08,1,.45,1.17Z"/>
  <path class="cls-1" d="m98.5,157.22c-13.5-.15-25.23-4.95-35.05-14.4-.64-.61-1.62-1.15-1.13-2.32.56-1.35,1.93-1.62,3.07-.53,4.21,4.03,8.86,7.36,14.2,9.77,18.37,8.3,40.07,3.73,53.49-11.31,8.2-9.19,12.64-19.88,13.03-32.2.04-1.28.4-2.19,1.78-2.17,1.54.02,1.55,1.22,1.52,2.35-.4,12.74-4.71,24.02-13.14,33.56-9.95,11.26-22.54,17.03-37.76,17.24Z"/>
  <path class="cls-1" d="m105.45,110.56c-4,3.84-8.01,7.67-12.01,11.51-4.47,4.3-8.93,8.62-13.4,12.93-.6.58-1.23,1.1-2,.23-.71-.8-.09-1.32.42-1.82,8.37-8.27,17.29-15.91,26.32-23.44.22.2.44.39.67.59Z"/>
  <path class="cls-1" d="m103.38,107.34c-4.47,2.48-8.92,5-13.42,7.42-6.1,3.27-12.25,6.47-18.39,9.67-.78.41-1.7,1.17-2.42-.07-.73-1.25.31-1.68,1.14-2.07,10.82-5.1,21.65-10.19,32.48-15.27.11-.05.27,0,.41,0,.06.11.13.22.19.33Z"/>
  <path class="cls-1" d="m108.53,111.38c-2.74,4.99-5.22,9.58-7.76,14.13-3.06,5.47-6.16,10.91-9.25,16.37-.46.81-.89,1.9-2.08,1.18-1.16-.71-.44-1.58.06-2.4,5.38-8.87,10.83-17.69,16.55-26.35.62-.94,1.12-1.96,2.49-2.93Z"/>
  <path class="cls-1" d="m52.11,106.73c-1.29,0-2.58-.01-3.87,0-.96.01-1.46-.41-1.49-1.4-.03-1,.31-1.76,1.39-1.78,2.94-.05,5.88-.06,8.82-.02.96.01,1.32.69,1.32,1.62,0,.98-.55,1.5-1.44,1.54-1.57.07-3.15.02-4.73.02,0,0,0,.01,0,.02Z"/>
  <path class="cls-1" d="m77.34,68.22c-.6.05-.9-.38-1.19-.79-1.6-2.3-3.17-4.62-4.78-6.91-.77-1.09-.41-1.77.6-2.47,1.12-.78,1.67-.22,2.24.66,1.48,2.29,3.02,4.55,4.45,6.87.72,1.16-.04,2.56-1.32,2.64Z"/>
  <path class="cls-1" d="m61.99,84.71c-.29-.14-.61-.28-.93-.45-2.16-1.16-4.31-2.34-6.48-3.48-1.13-.59-1.67-1.25-.88-2.55.73-1.2,1.48-1.07,2.5-.44,2.21,1.36,4.46,2.66,6.68,4.01.49.3.98.7.65,1.41-.31.66-.68,1.27-1.53,1.51Z"/>
  <path class="cls-1" d="m82.06,59.72c-.79.11-1.09-.42-1.31-.95-.44-1.07-.79-2.16-1.22-3.23-.39-.99.13-1.51.95-1.83.83-.32,1.56-.26,1.91.75.38,1.09.81,2.16,1.18,3.25.5,1.45-.62,1.68-1.52,2.02Z"/>
  <path class="cls-1" d="m51.26,85.77c1.3.49,2.68.94,3.99,1.53.75.33.6,1.06.36,1.7-.24.65-.55,1.2-1.41.91-1.3-.43-2.61-.82-3.89-1.29-.73-.27-.91-.91-.61-1.6.28-.65.58-1.36,1.57-1.24Z"/>
  <path class="cls-1" d="m51.69,98.23c-.8-.14-2-.34-3.2-.56-.84-.15-1.23-.64-1.11-1.52.13-.91.58-1.56,1.52-1.45,1.28.15,2.54.47,3.8.74.98.21.92.92.82,1.68-.11.87-.53,1.3-1.84,1.11Z"/>
  <path class="cls-1" d="m91.55,55.71c.19.91-.53,1.21-1.34,1.4-.88.21-1.34-.23-1.52-1.06-.24-1.12-.49-2.23-.73-3.34-.2-.95.2-1.53,1.13-1.71.96-.18,1.71.05,1.89,1.17.18,1.12.36,2.25.57,3.53Z"/>
  <path class="cls-1" d="m99.85,53.46c-.01.2-.03.92-.12,1.63-.1.73-.63.88-1.28.83-.75-.06-1.5-.14-1.54-1.11-.05-1.08-.01-2.16-.07-3.23-.06-1.17.49-1.76,1.62-1.82,1.39-.07,1.4.91,1.39,1.89,0,.43,0,.86,0,1.81Z"/>
  <path class="cls-1" d="m59.34,70.09c.34-.3.86-.27,1.21.02,1,.85,2.01,1.69,2.95,2.61.62.6,0,1.17-.35,1.69-.48.72-1.04.9-1.76.29-.87-.74-1.78-1.43-2.66-2.16-.42-.34-.66-.75-.31-1.29.26-.4.52-.81.92-1.16Z"/>
  <path class="cls-1" d="m65.85,63.28c1.08.53,1.75,1.67,2.61,2.6.39.42.81.89.95,1.41.2.76-.58,1.07-1.03,1.49-.5.47-.94.18-1.3-.21-.88-.94-1.8-1.86-2.59-2.89-.63-.82.17-2.32,1.36-2.4Z"/>
  <path class="cls-1" d="m116.32,54.1c-.35,1.16-.65,2.33-1.05,3.47-.26.75-.89.84-1.58.6-.64-.22-1.24-.49-1.02-1.34.3-1.17.6-2.34.94-3.51.25-.86.89-1.07,1.67-.83.74.23,1.26.69,1.05,1.6Z"/>
  <path class="cls-1" d="m108.68,52.06c-.25,1.18-.45,2.38-.75,3.55-.2.77-.82.91-1.53.73-.65-.17-1.28-.38-1.13-1.25.2-1.19.4-2.39.64-3.57.17-.88.8-1.15,1.6-.97.76.17,1.31.58,1.18,1.51Z"/>
  <path class="cls-1" d="m59.21,127.38c0,.62-.33,1-.79,1.25-1.19.66-2.39,1.3-3.6,1.93-.69.36-1.23.2-1.62-.5-.39-.7-.26-1.21.47-1.58,1.35-.66,2.68-1.39,4.05-2,.85-.38,1.37.03,1.48.89Z"/>
  <path class="cls-1" d="m50.83,122.87c-.93-.12-1.05-.82-1.27-1.39-.23-.6-.12-1.18.54-1.42,1.21-.43,2.44-.79,3.67-1.18.6-.19.97.1,1.17.63.2.54.47,1.26-.11,1.57-1.31.7-2.72,1.23-4,1.79Z"/>
  <path class="cls-1" d="m48.82,114.34c-.87-.35-.8-1.06-.86-1.67-.07-.64.19-1.17.89-1.23,1.28-.11,2.56-.14,3.85-.19.63-.03.91.35.96.91.06.57.13,1.34-.51,1.49-1.45.34-2.95.49-4.33.7Z"/>
  <path class="cls-1" d="m121.32,61.2c-.68-.23-1.42-.58-1.18-1.32.45-1.43.92-2.88,1.86-4.09.3-.39.71-.44,1.15-.21.45.23,1.01.47.9,1.07-.31,1.65-1.19,3.04-2.16,4.37-.1.14-.39.13-.57.18Z"/>
</svg>